<svg xmlns="http://www.w3.org/2000/svg" width="1200" height="420" viewBox="0 0 1200 420" role="img" aria-labelledby="title desc">
  <title id="title">LatticeMind</title>
  <desc id="desc">A living knowledge layer for Obsidian and AI coding agents</desc>
  <defs>
    <linearGradient id="bg" x1="0" y1="0" x2="1" y2="1">
      <stop offset="0" stop-color="#090c18"/>
      <stop offset="0.55" stop-color="#12172b"/>
      <stop offset="1" stop-color="#0a2430"/>
    </linearGradient>
    <linearGradient id="accent" x1="0" y1="0" x2="1" y2="0">
      <stop offset="0" stop-color="#8b5cf6"/>
      <stop offset="1" stop-color="#22d3ee"/>
    </linearGradient>
    <filter id="glow"><feGaussianBlur stdDeviation="7" result="b"/><feMerge><feMergeNode in="b"/><feMergeNode in="SourceGraphic"/></feMerge></filter>
  </defs>
  <rect width="1200" height="420" rx="28" fill="url(#bg)"/>
  <g stroke="#293252" stroke-width="1" opacity=".55">
    <path d="M0 70H1200M0 140H1200M0 210H1200M0 280H1200M0 350H1200"/>
    <path d="M100 0V420M200 0V420M300 0V420M400 0V420M500 0V420M600 0V420M700 0V420M800 0V420M900 0V420M1000 0V420M1100 0V420"/>
  </g>
  <g transform="translate(125 85)" fill="none" stroke="url(#accent)" stroke-width="4" filter="url(#glow)">
    <path d="M35 145L105 55L185 85L225 180L130 235L35 145ZM105 55L130 235M35 145L185 85M185 85L130 235"/>
    <circle cx="35" cy="145" r="11" fill="#8b5cf6"/><circle cx="105" cy="55" r="11" fill="#9b72f7"/>
    <circle cx="185" cy="85" r="11" fill="#5fa8f2"/><circle cx="225" cy="180" r="11" fill="#22d3ee"/>
    <circle cx="130" cy="235" r="11" fill="#44c6ea"/>
  </g>
  <text x="430" y="182" fill="#f8fafc" font-family="Inter,Segoe UI,sans-serif" font-size="76" font-weight="700" letter-spacing="-2">LatticeMind</text>
  <rect x="432" y="208" width="610" height="4" rx="2" fill="url(#accent)"/>
  <text x="432" y="266" fill="#b9c3da" font-family="Inter,Segoe UI,sans-serif" font-size="26" letter-spacing="1">THE LIVING KNOWLEDGE LAYER</text>
  <text x="432" y="310" fill="#7784a3" font-family="Inter,Segoe UI,sans-serif" font-size="18">Obsidian · GJC · Codex · scheduled synthesis</text>
</svg>
